<svg width="181" height="228" viewBox="0 0 181 228" fill="none" xmlns="http://www.w3.org/2000/svg">
<path d="M4.87653 201.164L14.6299 221.89L24.3834 201.164" stroke="white" stroke-width="4.87671"/>
<path d="M46.3288 224.329H52.4247M52.4247 224.329H58.5206M52.4247 224.329V199.945" stroke="white" stroke-width="4.87671"/>
<path d="M97.5339 203.603C95.9084 201.571 91.682 199.214 87.7807 201.164C83.8793 203.115 84.5295 206.854 85.3423 208.479C86.155 210.105 87.7805 212.137 91.4381 212.137C94.3641 212.137 95.9084 214.575 96.3148 215.795C97.1276 219.046 96.1517 224.329 90.2189 224.329C85.3422 224.329 84.123 220.671 84.123 219.452M123.137 201.164H130.452M137.767 201.164H130.452M130.452 201.164V224.329" stroke="white" stroke-width="4.87671"/>
<path d="M159.712 225.548L168.247 202.384L178 225.548" stroke="white" stroke-width="4.87671"/>
<path d="M0 2.43835L39.5791 88.4111L78.0274 180.438H0V2.43835Z" fill="white"/>
<path d="M178 -3.05176e-05L140.895 87.1505L104.849 180.438H178V-3.05176e-05Z" fill="white"/>
<path d="M35.3563 -3.05176e-05H146.302L86.5618 79.2465L35.3563 -3.05176e-05Z" fill="white"/>
</svg>
